<mxfile host="app.diagrams.net" modified="2023-05-02T15:01:34.709Z" agent="Mozilla/5.0 (X11; Linux x86_64; rv:109.0) Gecko/20100101 Firefox/112.0" etag="vb7ouB7tg56J_69UmY1u" version="21.2.0" type="device">
  <diagram name="Page-1" id="Vplc2FbkKxrORxa0Ai_x">
    <mxGraphModel dx="847" dy="460" grid="1" gridSize="10" guides="1" tooltips="1" connect="1" arrows="1" fold="1" page="1" pageScale="1" pageWidth="850" pageHeight="1100" math="0" shadow="0">
      <root>
        <mxCell id="0" />
        <mxCell id="1" parent="0" />
        <mxCell id="NzjxVL5mABf7hT2KAsvz-4" style="edgeStyle=orthogonalEdgeStyle;rounded=0;orthogonalLoop=1;jettySize=auto;html=1;entryX=0;entryY=0.5;entryDx=0;entryDy=0;" parent="1" source="NzjxVL5mABf7hT2KAsvz-1" target="NzjxVL5mABf7hT2KAsvz-2" edge="1">
          <mxGeometry relative="1" as="geometry" />
        </mxCell>
        <mxCell id="NzjxVL5mABf7hT2KAsvz-44" style="edgeStyle=orthogonalEdgeStyle;rounded=0;orthogonalLoop=1;jettySize=auto;html=1;endArrow=none;endFill=0;startArrow=classic;startFill=1;" parent="1" source="NzjxVL5mABf7hT2KAsvz-1" edge="1">
          <mxGeometry relative="1" as="geometry">
            <mxPoint x="170" y="100" as="targetPoint" />
          </mxGeometry>
        </mxCell>
        <mxCell id="sey96yaQxsVApKrz18R4-3" style="rounded=0;orthogonalLoop=1;jettySize=auto;html=1;fillColor=#d5e8d4;strokeColor=#82b366;" edge="1" parent="1" source="NzjxVL5mABf7hT2KAsvz-1" target="NzjxVL5mABf7hT2KAsvz-35">
          <mxGeometry relative="1" as="geometry" />
        </mxCell>
        <mxCell id="NzjxVL5mABf7hT2KAsvz-1" value="&lt;div&gt;m=0&lt;/div&gt;&lt;div&gt;t=0&lt;br&gt;&lt;/div&gt;&lt;div&gt;is_done=0&lt;br&gt;&lt;/div&gt;" style="ellipse;whiteSpace=wrap;html=1;aspect=fixed;fillColor=#d5e8d4;strokeColor=#82b366;" parent="1" vertex="1">
          <mxGeometry x="130" y="140" width="80" height="80" as="geometry" />
        </mxCell>
        <mxCell id="NzjxVL5mABf7hT2KAsvz-33" style="edgeStyle=orthogonalEdgeStyle;rounded=0;orthogonalLoop=1;jettySize=auto;html=1;" parent="1" source="NzjxVL5mABf7hT2KAsvz-2" target="NzjxVL5mABf7hT2KAsvz-32" edge="1">
          <mxGeometry relative="1" as="geometry" />
        </mxCell>
        <mxCell id="NzjxVL5mABf7hT2KAsvz-36" style="edgeStyle=orthogonalEdgeStyle;rounded=0;orthogonalLoop=1;jettySize=auto;html=1;" parent="1" source="NzjxVL5mABf7hT2KAsvz-37" target="NzjxVL5mABf7hT2KAsvz-35" edge="1">
          <mxGeometry relative="1" as="geometry">
            <Array as="points">
              <mxPoint x="320" y="300" />
              <mxPoint x="410" y="300" />
            </Array>
          </mxGeometry>
        </mxCell>
        <mxCell id="NzjxVL5mABf7hT2KAsvz-2" value="&lt;div&gt;m=1&lt;/div&gt;t=t+1" style="ellipse;whiteSpace=wrap;html=1;aspect=fixed;" parent="1" vertex="1">
          <mxGeometry x="280" y="140" width="80" height="80" as="geometry" />
        </mxCell>
        <mxCell id="NzjxVL5mABf7hT2KAsvz-18" style="edgeStyle=orthogonalEdgeStyle;rounded=0;orthogonalLoop=1;jettySize=auto;html=1;entryX=0;entryY=0.5;entryDx=0;entryDy=0;" parent="1" source="NzjxVL5mABf7hT2KAsvz-3" target="NzjxVL5mABf7hT2KAsvz-17" edge="1">
          <mxGeometry relative="1" as="geometry" />
        </mxCell>
        <mxCell id="NzjxVL5mABf7hT2KAsvz-24" style="edgeStyle=orthogonalEdgeStyle;rounded=0;orthogonalLoop=1;jettySize=auto;html=1;entryX=1;entryY=1;entryDx=0;entryDy=0;dashed=1;" parent="1" source="NzjxVL5mABf7hT2KAsvz-3" target="NzjxVL5mABf7hT2KAsvz-2" edge="1">
          <mxGeometry relative="1" as="geometry">
            <Array as="points">
              <mxPoint x="470" y="260" />
              <mxPoint x="348" y="260" />
            </Array>
          </mxGeometry>
        </mxCell>
        <mxCell id="NzjxVL5mABf7hT2KAsvz-3" value="m=0" style="ellipse;whiteSpace=wrap;html=1;aspect=fixed;direction=west;" parent="1" vertex="1">
          <mxGeometry x="430" y="140" width="80" height="80" as="geometry" />
        </mxCell>
        <mxCell id="NzjxVL5mABf7hT2KAsvz-5" style="edgeStyle=orthogonalEdgeStyle;rounded=0;orthogonalLoop=1;jettySize=auto;html=1;exitX=1;exitY=0.5;exitDx=0;exitDy=0;" parent="1" source="NzjxVL5mABf7hT2KAsvz-2" target="NzjxVL5mABf7hT2KAsvz-3" edge="1">
          <mxGeometry relative="1" as="geometry">
            <mxPoint x="220" y="190" as="sourcePoint" />
            <mxPoint x="290" y="190" as="targetPoint" />
          </mxGeometry>
        </mxCell>
        <mxCell id="NzjxVL5mABf7hT2KAsvz-6" value="&lt;font color=&quot;#ff0000&quot;&gt;invest&lt;/font&gt;" style="text;html=1;strokeColor=none;fillColor=none;align=center;verticalAlign=middle;whiteSpace=wrap;rounded=0;" parent="1" vertex="1">
          <mxGeometry x="210" y="180" width="60" height="30" as="geometry" />
        </mxCell>
        <mxCell id="NzjxVL5mABf7hT2KAsvz-7" value="&lt;font color=&quot;#ff0000&quot;&gt;month&lt;/font&gt;" style="text;html=1;strokeColor=none;fillColor=none;align=center;verticalAlign=middle;whiteSpace=wrap;rounded=0;" parent="1" vertex="1">
          <mxGeometry x="360" y="180" width="60" height="30" as="geometry" />
        </mxCell>
        <mxCell id="NzjxVL5mABf7hT2KAsvz-25" style="edgeStyle=orthogonalEdgeStyle;rounded=0;orthogonalLoop=1;jettySize=auto;html=1;entryX=0.5;entryY=0;entryDx=0;entryDy=0;dashed=1;" parent="1" source="NzjxVL5mABf7hT2KAsvz-17" target="NzjxVL5mABf7hT2KAsvz-2" edge="1">
          <mxGeometry relative="1" as="geometry">
            <Array as="points">
              <mxPoint x="620" y="120" />
              <mxPoint x="320" y="120" />
            </Array>
          </mxGeometry>
        </mxCell>
        <mxCell id="NzjxVL5mABf7hT2KAsvz-17" value="m=0" style="ellipse;whiteSpace=wrap;html=1;aspect=fixed;" parent="1" vertex="1">
          <mxGeometry x="580" y="140" width="80" height="80" as="geometry" />
        </mxCell>
        <mxCell id="NzjxVL5mABf7hT2KAsvz-20" value="&lt;font color=&quot;#ff0000&quot;&gt;delivery&lt;/font&gt;" style="text;html=1;strokeColor=none;fillColor=none;align=center;verticalAlign=middle;whiteSpace=wrap;rounded=0;" parent="1" vertex="1">
          <mxGeometry x="510" y="180" width="60" height="30" as="geometry" />
        </mxCell>
        <mxCell id="NzjxVL5mABf7hT2KAsvz-26" value="&lt;font color=&quot;#ff0000&quot;&gt;invest&lt;/font&gt;" style="text;html=1;strokeColor=none;fillColor=none;align=center;verticalAlign=middle;whiteSpace=wrap;rounded=0;" parent="1" vertex="1">
          <mxGeometry x="440" y="90" width="60" height="30" as="geometry" />
        </mxCell>
        <mxCell id="NzjxVL5mABf7hT2KAsvz-27" value="&lt;font color=&quot;#ff0000&quot;&gt;invest&lt;/font&gt;" style="text;html=1;strokeColor=none;fillColor=none;align=center;verticalAlign=middle;whiteSpace=wrap;rounded=0;" parent="1" vertex="1">
          <mxGeometry x="360" y="230" width="60" height="30" as="geometry" />
        </mxCell>
        <mxCell id="NzjxVL5mABf7hT2KAsvz-57" style="edgeStyle=orthogonalEdgeStyle;rounded=0;orthogonalLoop=1;jettySize=auto;html=1;entryX=0;entryY=0.5;entryDx=0;entryDy=0;dashed=1;" parent="1" source="NzjxVL5mABf7hT2KAsvz-32" target="NzjxVL5mABf7hT2KAsvz-35" edge="1">
          <mxGeometry relative="1" as="geometry" />
        </mxCell>
        <mxCell id="NzjxVL5mABf7hT2KAsvz-32" value="m=0" style="ellipse;whiteSpace=wrap;html=1;aspect=fixed;" parent="1" vertex="1">
          <mxGeometry x="200" y="380" width="80" height="80" as="geometry" />
        </mxCell>
        <mxCell id="NzjxVL5mABf7hT2KAsvz-35" value="is_done=1" style="ellipse;whiteSpace=wrap;html=1;aspect=fixed;fillColor=#fff2cc;strokeColor=#d6b656;" parent="1" vertex="1">
          <mxGeometry x="370" y="380" width="80" height="80" as="geometry" />
        </mxCell>
        <mxCell id="NzjxVL5mABf7hT2KAsvz-38" value="&lt;div&gt;&lt;font color=&quot;#006600&quot;&gt;i=1 and b=0&lt;br&gt;&lt;/font&gt;&lt;/div&gt;" style="text;html=1;strokeColor=none;fillColor=none;align=center;verticalAlign=middle;whiteSpace=wrap;rounded=0;fontStyle=1" parent="1" vertex="1">
          <mxGeometry x="160" y="330" width="80" height="30" as="geometry" />
        </mxCell>
        <mxCell id="NzjxVL5mABf7hT2KAsvz-40" value="&lt;div&gt;&lt;font color=&quot;#006600&quot;&gt;else&lt;br&gt;&lt;/font&gt;&lt;/div&gt;" style="text;html=1;strokeColor=none;fillColor=none;align=center;verticalAlign=middle;whiteSpace=wrap;rounded=0;fontStyle=1" parent="1" vertex="1">
          <mxGeometry x="360" y="280" width="80" height="30" as="geometry" />
        </mxCell>
        <mxCell id="NzjxVL5mABf7hT2KAsvz-46" value="&lt;font color=&quot;#ff0000&quot;&gt;month&lt;/font&gt;" style="text;html=1;strokeColor=none;fillColor=none;align=center;verticalAlign=middle;whiteSpace=wrap;rounded=0;" parent="1" vertex="1">
          <mxGeometry x="290" y="300" width="60" height="30" as="geometry" />
        </mxCell>
        <mxCell id="NzjxVL5mABf7hT2KAsvz-47" value="&lt;font color=&quot;#ff0000&quot;&gt;delivery&lt;/font&gt;" style="text;html=1;strokeColor=none;fillColor=none;align=center;verticalAlign=middle;whiteSpace=wrap;rounded=0;" parent="1" vertex="1">
          <mxGeometry x="290" y="430" width="60" height="30" as="geometry" />
        </mxCell>
        <mxCell id="NzjxVL5mABf7hT2KAsvz-52" value="&lt;font color=&quot;#006600&quot;&gt;t&amp;lt;tmax&lt;/font&gt;" style="text;html=1;strokeColor=none;fillColor=none;align=center;verticalAlign=middle;whiteSpace=wrap;rounded=0;fontStyle=1" parent="1" vertex="1">
          <mxGeometry x="360" y="150" width="60" height="30" as="geometry" />
        </mxCell>
        <mxCell id="NzjxVL5mABf7hT2KAsvz-54" style="edgeStyle=orthogonalEdgeStyle;rounded=0;orthogonalLoop=1;jettySize=auto;html=1;entryX=0.5;entryY=1;entryDx=0;entryDy=0;" parent="1" edge="1">
          <mxGeometry relative="1" as="geometry">
            <Array as="points">
              <mxPoint x="470" y="410" />
              <mxPoint x="470" y="480" />
              <mxPoint x="410" y="480" />
            </Array>
            <mxPoint x="448.7298334620741" y="410" as="sourcePoint" />
            <mxPoint x="410" y="460" as="targetPoint" />
          </mxGeometry>
        </mxCell>
        <mxCell id="NzjxVL5mABf7hT2KAsvz-55" value="&lt;font color=&quot;#ff0000&quot;&gt;done&lt;/font&gt;" style="text;html=1;strokeColor=none;fillColor=none;align=center;verticalAlign=middle;whiteSpace=wrap;rounded=0;" parent="1" vertex="1">
          <mxGeometry x="470" y="430" width="60" height="30" as="geometry" />
        </mxCell>
        <mxCell id="NzjxVL5mABf7hT2KAsvz-59" style="edgeStyle=orthogonalEdgeStyle;rounded=0;orthogonalLoop=1;jettySize=auto;html=1;endArrow=none;endFill=0;startArrow=classic;startFill=1;" parent="1" edge="1">
          <mxGeometry relative="1" as="geometry">
            <mxPoint x="130" y="635" as="targetPoint" />
            <mxPoint x="130" y="675" as="sourcePoint" />
          </mxGeometry>
        </mxCell>
        <mxCell id="NzjxVL5mABf7hT2KAsvz-66" value="&lt;font color=&quot;#ff0000&quot;&gt;invest&lt;/font&gt;" style="text;html=1;strokeColor=none;fillColor=none;align=center;verticalAlign=middle;whiteSpace=wrap;rounded=0;" parent="1" vertex="1">
          <mxGeometry x="70" y="775" width="60" height="30" as="geometry" />
        </mxCell>
        <mxCell id="NzjxVL5mABf7hT2KAsvz-75" style="edgeStyle=orthogonalEdgeStyle;rounded=0;orthogonalLoop=1;jettySize=auto;html=1;entryX=0.5;entryY=1;entryDx=0;entryDy=0;" parent="1" source="NzjxVL5mABf7hT2KAsvz-76" edge="1">
          <mxGeometry relative="1" as="geometry">
            <Array as="points">
              <mxPoint x="70" y="705" />
              <mxPoint x="70" y="775" />
              <mxPoint x="130" y="775" />
            </Array>
            <mxPoint x="168.7298334620741" y="705" as="sourcePoint" />
            <mxPoint x="130" y="755" as="targetPoint" />
          </mxGeometry>
        </mxCell>
        <mxCell id="NzjxVL5mABf7hT2KAsvz-78" style="edgeStyle=orthogonalEdgeStyle;rounded=0;orthogonalLoop=1;jettySize=auto;html=1;" parent="1" source="NzjxVL5mABf7hT2KAsvz-76" target="NzjxVL5mABf7hT2KAsvz-77" edge="1">
          <mxGeometry relative="1" as="geometry" />
        </mxCell>
        <mxCell id="NzjxVL5mABf7hT2KAsvz-76" value="&lt;div&gt;i=0&lt;/div&gt;&lt;div&gt;stocks=&lt;/div&gt;&lt;div&gt;max_stocks&lt;/div&gt;" style="ellipse;whiteSpace=wrap;html=1;aspect=fixed;" parent="1" vertex="1">
          <mxGeometry x="90" y="675" width="80" height="80" as="geometry" />
        </mxCell>
        <mxCell id="NzjxVL5mABf7hT2KAsvz-82" style="edgeStyle=orthogonalEdgeStyle;rounded=0;orthogonalLoop=1;jettySize=auto;html=1;entryX=0.863;entryY=0.075;entryDx=0;entryDy=0;entryPerimeter=0;" parent="1" source="NzjxVL5mABf7hT2KAsvz-77" target="NzjxVL5mABf7hT2KAsvz-76" edge="1">
          <mxGeometry relative="1" as="geometry">
            <Array as="points">
              <mxPoint x="270" y="655" />
              <mxPoint x="159" y="655" />
            </Array>
          </mxGeometry>
        </mxCell>
        <mxCell id="NzjxVL5mABf7hT2KAsvz-89" style="edgeStyle=orthogonalEdgeStyle;rounded=0;orthogonalLoop=1;jettySize=auto;html=1;entryX=1;entryY=1;entryDx=0;entryDy=0;" parent="1" source="NzjxVL5mABf7hT2KAsvz-77" target="NzjxVL5mABf7hT2KAsvz-76" edge="1">
          <mxGeometry relative="1" as="geometry">
            <Array as="points">
              <mxPoint x="260" y="775" />
              <mxPoint x="158" y="775" />
            </Array>
          </mxGeometry>
        </mxCell>
        <mxCell id="NzjxVL5mABf7hT2KAsvz-77" value="i=1" style="ellipse;whiteSpace=wrap;html=1;aspect=fixed;" parent="1" vertex="1">
          <mxGeometry x="230" y="675" width="80" height="80" as="geometry" />
        </mxCell>
        <mxCell id="NzjxVL5mABf7hT2KAsvz-79" value="&lt;font color=&quot;#ff0000&quot;&gt;invest&lt;/font&gt;" style="text;html=1;strokeColor=none;fillColor=none;align=center;verticalAlign=middle;whiteSpace=wrap;rounded=0;" parent="1" vertex="1">
          <mxGeometry x="170" y="715" width="60" height="30" as="geometry" />
        </mxCell>
        <mxCell id="NzjxVL5mABf7hT2KAsvz-84" style="edgeStyle=orthogonalEdgeStyle;rounded=0;orthogonalLoop=1;jettySize=auto;html=1;entryX=0.5;entryY=1;entryDx=0;entryDy=0;" parent="1" edge="1">
          <mxGeometry relative="1" as="geometry">
            <Array as="points">
              <mxPoint x="330" y="705" />
              <mxPoint x="330" y="775" />
              <mxPoint x="270" y="775" />
            </Array>
            <mxPoint x="308.7298334620741" y="705" as="sourcePoint" />
            <mxPoint x="270" y="755" as="targetPoint" />
          </mxGeometry>
        </mxCell>
        <mxCell id="NzjxVL5mABf7hT2KAsvz-85" value="&lt;font color=&quot;#ff0000&quot;&gt;invest&lt;/font&gt;" style="text;html=1;strokeColor=none;fillColor=none;align=center;verticalAlign=middle;whiteSpace=wrap;rounded=0;" parent="1" vertex="1">
          <mxGeometry x="170" y="650" width="60" height="30" as="geometry" />
        </mxCell>
        <mxCell id="NzjxVL5mABf7hT2KAsvz-86" value="&lt;font color=&quot;#ff0000&quot;&gt;invest&lt;/font&gt;" style="text;html=1;strokeColor=none;fillColor=none;align=center;verticalAlign=middle;whiteSpace=wrap;rounded=0;" parent="1" vertex="1">
          <mxGeometry x="270" y="775" width="60" height="30" as="geometry" />
        </mxCell>
        <mxCell id="NzjxVL5mABf7hT2KAsvz-88" value="&lt;div&gt;&lt;font color=&quot;#006600&quot;&gt;b=1&lt;/font&gt;&lt;font color=&quot;#33ff33&quot;&gt; and &lt;/font&gt;&lt;font color=&quot;#33ff33&quot;&gt;stocks &lt;font&gt;&amp;gt;&lt;/font&gt;&lt;font&gt; 0&lt;br&gt;&lt;/font&gt;&lt;/font&gt;&lt;/div&gt;" style="text;html=1;strokeColor=none;fillColor=none;align=center;verticalAlign=middle;whiteSpace=wrap;rounded=0;fontStyle=1" parent="1" vertex="1">
          <mxGeometry x="210" y="795" width="200" height="30" as="geometry" />
        </mxCell>
        <mxCell id="NzjxVL5mABf7hT2KAsvz-90" value="&lt;font color=&quot;#ff0000&quot;&gt;delivery&lt;/font&gt;" style="text;html=1;strokeColor=none;fillColor=none;align=center;verticalAlign=middle;whiteSpace=wrap;rounded=0;" parent="1" vertex="1">
          <mxGeometry x="170" y="775" width="60" height="30" as="geometry" />
        </mxCell>
        <mxCell id="NzjxVL5mABf7hT2KAsvz-91" value="&lt;div&gt;&lt;font color=&quot;#006600&quot;&gt;b=0&lt;/font&gt;&lt;/div&gt;" style="text;html=1;strokeColor=none;fillColor=none;align=center;verticalAlign=middle;whiteSpace=wrap;rounded=0;fontStyle=1" parent="1" vertex="1">
          <mxGeometry x="160" y="795" width="80" height="30" as="geometry" />
        </mxCell>
        <mxCell id="ENt79Uhcj-9WUcpKTyNv-1" value="&lt;i style=&quot;border-color: var(--border-color); color: rgb(102, 102, 102);&quot;&gt;noop&lt;/i&gt;" style="text;html=1;strokeColor=none;fillColor=none;align=center;verticalAlign=middle;whiteSpace=wrap;rounded=0;" parent="1" vertex="1">
          <mxGeometry x="70" y="795" width="60" height="30" as="geometry" />
        </mxCell>
        <mxCell id="ENt79Uhcj-9WUcpKTyNv-2" value="&lt;font color=&quot;#666666&quot;&gt;&lt;i&gt;reserve&lt;/i&gt;&lt;/font&gt;" style="text;html=1;strokeColor=none;fillColor=none;align=center;verticalAlign=middle;whiteSpace=wrap;rounded=0;" parent="1" vertex="1">
          <mxGeometry x="170" y="735" width="60" height="30" as="geometry" />
        </mxCell>
        <mxCell id="ENt79Uhcj-9WUcpKTyNv-3" value="&lt;font color=&quot;#666666&quot;&gt;&lt;i&gt;noop&lt;/i&gt;&lt;/font&gt;" style="text;html=1;strokeColor=none;fillColor=none;align=center;verticalAlign=middle;whiteSpace=wrap;rounded=0;" parent="1" vertex="1">
          <mxGeometry x="170" y="670" width="60" height="30" as="geometry" />
        </mxCell>
        <mxCell id="ENt79Uhcj-9WUcpKTyNv-4" value="&lt;font color=&quot;#666666&quot;&gt;&lt;i&gt;reserve&lt;/i&gt;&lt;/font&gt;" style="text;html=1;strokeColor=none;fillColor=none;align=center;verticalAlign=middle;whiteSpace=wrap;rounded=0;" parent="1" vertex="1">
          <mxGeometry x="270" y="815" width="60" height="30" as="geometry" />
        </mxCell>
        <mxCell id="ENt79Uhcj-9WUcpKTyNv-6" value="&lt;font color=&quot;#666666&quot;&gt;&lt;i&gt;reserve/noop&lt;/i&gt;&lt;/font&gt;" style="text;html=1;strokeColor=none;fillColor=none;align=center;verticalAlign=middle;whiteSpace=wrap;rounded=0;" parent="1" vertex="1">
          <mxGeometry x="210" y="200" width="60" height="30" as="geometry" />
        </mxCell>
        <mxCell id="ENt79Uhcj-9WUcpKTyNv-7" value="&lt;font color=&quot;#666666&quot;&gt;&lt;i&gt;reserve/noop&lt;/i&gt;&lt;/font&gt;" style="text;html=1;strokeColor=none;fillColor=none;align=center;verticalAlign=middle;whiteSpace=wrap;rounded=0;" parent="1" vertex="1">
          <mxGeometry x="360" y="250" width="60" height="30" as="geometry" />
        </mxCell>
        <mxCell id="ENt79Uhcj-9WUcpKTyNv-8" value="&lt;font color=&quot;#666666&quot;&gt;&lt;i&gt;reserve/noop&lt;/i&gt;&lt;/font&gt;" style="text;html=1;strokeColor=none;fillColor=none;align=center;verticalAlign=middle;whiteSpace=wrap;rounded=0;" parent="1" vertex="1">
          <mxGeometry x="440" y="110" width="60" height="30" as="geometry" />
        </mxCell>
        <mxCell id="ENt79Uhcj-9WUcpKTyNv-12" value="&lt;font color=&quot;#666666&quot;&gt;&lt;i&gt;update&lt;br&gt;v, cap, p&lt;/i&gt;&lt;/font&gt;" style="text;html=1;strokeColor=none;fillColor=none;align=center;verticalAlign=middle;whiteSpace=wrap;rounded=0;" parent="1" vertex="1">
          <mxGeometry x="360" y="200" width="60" height="30" as="geometry" />
        </mxCell>
        <mxCell id="ENt79Uhcj-9WUcpKTyNv-13" value="&lt;font color=&quot;#666666&quot;&gt;&lt;i&gt;reserve/noop&lt;/i&gt;&lt;/font&gt;" style="text;html=1;strokeColor=none;fillColor=none;align=center;verticalAlign=middle;whiteSpace=wrap;rounded=0;" parent="1" vertex="1">
          <mxGeometry x="210" y="200" width="60" height="30" as="geometry" />
        </mxCell>
        <mxCell id="ENt79Uhcj-9WUcpKTyNv-14" value="&lt;font color=&quot;#666666&quot;&gt;&lt;i&gt;reserve/noop&lt;/i&gt;&lt;/font&gt;" style="text;html=1;strokeColor=none;fillColor=none;align=center;verticalAlign=middle;whiteSpace=wrap;rounded=0;" parent="1" vertex="1">
          <mxGeometry x="440" y="110" width="60" height="30" as="geometry" />
        </mxCell>
        <mxCell id="ENt79Uhcj-9WUcpKTyNv-16" value="&lt;font color=&quot;#666666&quot;&gt;&lt;i&gt;reserve/noop&lt;/i&gt;&lt;/font&gt;" style="text;html=1;strokeColor=none;fillColor=none;align=center;verticalAlign=middle;whiteSpace=wrap;rounded=0;" parent="1" vertex="1">
          <mxGeometry x="360" y="250" width="60" height="30" as="geometry" />
        </mxCell>
        <mxCell id="ENt79Uhcj-9WUcpKTyNv-21" value="&lt;font color=&quot;#666666&quot;&gt;&lt;i&gt;absorbing state&lt;/i&gt;&lt;/font&gt;" style="text;html=1;strokeColor=none;fillColor=none;align=center;verticalAlign=middle;whiteSpace=wrap;rounded=0;" parent="1" vertex="1">
          <mxGeometry x="470" y="460" width="60" height="30" as="geometry" />
        </mxCell>
        <mxCell id="ENt79Uhcj-9WUcpKTyNv-22" value="&lt;font color=&quot;#666666&quot;&gt;&lt;i&gt;if reserved&lt;br&gt;&amp;amp; not barred,&lt;br&gt;cash in shares&lt;br&gt;&lt;/i&gt;&lt;/font&gt;" style="text;html=1;strokeColor=none;fillColor=none;align=center;verticalAlign=middle;whiteSpace=wrap;rounded=0;" parent="1" vertex="1">
          <mxGeometry x="485" y="210" width="110" height="30" as="geometry" />
        </mxCell>
        <mxCell id="ENt79Uhcj-9WUcpKTyNv-23" value="&lt;font color=&quot;#666666&quot;&gt;&lt;i&gt;if reserved&lt;br&gt;&amp;amp; not barred,&lt;br&gt;cash in shares&lt;br&gt;&lt;/i&gt;&lt;/font&gt;" style="text;html=1;strokeColor=none;fillColor=none;align=center;verticalAlign=middle;whiteSpace=wrap;rounded=0;" parent="1" vertex="1">
          <mxGeometry x="265" y="460" width="110" height="30" as="geometry" />
        </mxCell>
        <mxCell id="ENt79Uhcj-9WUcpKTyNv-24" style="edgeStyle=orthogonalEdgeStyle;rounded=0;orthogonalLoop=1;jettySize=auto;html=1;endArrow=none;endFill=0;startArrow=classic;startFill=1;" parent="1" edge="1">
          <mxGeometry relative="1" as="geometry">
            <mxPoint x="470" y="635" as="targetPoint" />
            <mxPoint x="470" y="675" as="sourcePoint" />
          </mxGeometry>
        </mxCell>
        <mxCell id="ENt79Uhcj-9WUcpKTyNv-27" style="edgeStyle=orthogonalEdgeStyle;rounded=0;orthogonalLoop=1;jettySize=auto;html=1;" parent="1" source="ENt79Uhcj-9WUcpKTyNv-28" target="ENt79Uhcj-9WUcpKTyNv-31" edge="1">
          <mxGeometry relative="1" as="geometry" />
        </mxCell>
        <mxCell id="ENt79Uhcj-9WUcpKTyNv-28" value="b=1" style="ellipse;whiteSpace=wrap;html=1;aspect=fixed;" parent="1" vertex="1">
          <mxGeometry x="430" y="675" width="80" height="80" as="geometry" />
        </mxCell>
        <mxCell id="ENt79Uhcj-9WUcpKTyNv-29" style="edgeStyle=orthogonalEdgeStyle;rounded=0;orthogonalLoop=1;jettySize=auto;html=1;entryX=0.863;entryY=0.075;entryDx=0;entryDy=0;entryPerimeter=0;" parent="1" source="ENt79Uhcj-9WUcpKTyNv-31" target="ENt79Uhcj-9WUcpKTyNv-28" edge="1">
          <mxGeometry relative="1" as="geometry">
            <Array as="points">
              <mxPoint x="610" y="655" />
              <mxPoint x="499" y="655" />
            </Array>
          </mxGeometry>
        </mxCell>
        <mxCell id="ENt79Uhcj-9WUcpKTyNv-31" value="b=0" style="ellipse;whiteSpace=wrap;html=1;aspect=fixed;" parent="1" vertex="1">
          <mxGeometry x="570" y="675" width="80" height="80" as="geometry" />
        </mxCell>
        <mxCell id="ENt79Uhcj-9WUcpKTyNv-32" value="&lt;font color=&quot;#ff0000&quot;&gt;invest&lt;/font&gt;" style="text;html=1;strokeColor=none;fillColor=none;align=center;verticalAlign=middle;whiteSpace=wrap;rounded=0;" parent="1" vertex="1">
          <mxGeometry x="510" y="715" width="60" height="30" as="geometry" />
        </mxCell>
        <mxCell id="ENt79Uhcj-9WUcpKTyNv-33" style="edgeStyle=orthogonalEdgeStyle;rounded=0;orthogonalLoop=1;jettySize=auto;html=1;entryX=0.5;entryY=1;entryDx=0;entryDy=0;" parent="1" edge="1">
          <mxGeometry relative="1" as="geometry">
            <Array as="points">
              <mxPoint x="670" y="705" />
              <mxPoint x="670" y="775" />
              <mxPoint x="610" y="775" />
            </Array>
            <mxPoint x="648.7298334620741" y="705" as="sourcePoint" />
            <mxPoint x="610" y="755" as="targetPoint" />
          </mxGeometry>
        </mxCell>
        <mxCell id="ENt79Uhcj-9WUcpKTyNv-34" value="&lt;font color=&quot;#ff0000&quot;&gt;invest&lt;/font&gt;" style="text;html=1;strokeColor=none;fillColor=none;align=center;verticalAlign=middle;whiteSpace=wrap;rounded=0;" parent="1" vertex="1">
          <mxGeometry x="510" y="630" width="60" height="30" as="geometry" />
        </mxCell>
        <mxCell id="ENt79Uhcj-9WUcpKTyNv-35" value="&lt;font color=&quot;#ff0000&quot;&gt;invest&lt;/font&gt;" style="text;html=1;strokeColor=none;fillColor=none;align=center;verticalAlign=middle;whiteSpace=wrap;rounded=0;" parent="1" vertex="1">
          <mxGeometry x="610" y="775" width="60" height="30" as="geometry" />
        </mxCell>
        <mxCell id="ENt79Uhcj-9WUcpKTyNv-36" value="&lt;div&gt;&lt;font color=&quot;#0000ff&quot;&gt;p_bar&lt;/font&gt;&lt;br&gt;&lt;/div&gt;" style="text;html=1;strokeColor=none;fillColor=none;align=center;verticalAlign=middle;whiteSpace=wrap;rounded=0;fontStyle=1" parent="1" vertex="1">
          <mxGeometry x="500" y="655" width="80" height="30" as="geometry" />
        </mxCell>
        <mxCell id="ENt79Uhcj-9WUcpKTyNv-37" value="&lt;div&gt;&lt;font color=&quot;#006600&quot;&gt;i=0&lt;/font&gt;&lt;/div&gt;" style="text;html=1;strokeColor=none;fillColor=none;align=center;verticalAlign=middle;whiteSpace=wrap;rounded=0;fontStyle=1" parent="1" vertex="1">
          <mxGeometry x="620" y="675" width="80" height="30" as="geometry" />
        </mxCell>
        <mxCell id="ENt79Uhcj-9WUcpKTyNv-41" value="&lt;font color=&quot;#666666&quot;&gt;&lt;i&gt;do not bar&lt;/i&gt;&lt;/font&gt;" style="text;html=1;strokeColor=none;fillColor=none;align=center;verticalAlign=middle;whiteSpace=wrap;rounded=0;" parent="1" vertex="1">
          <mxGeometry x="510" y="735" width="60" height="30" as="geometry" />
        </mxCell>
        <mxCell id="ENt79Uhcj-9WUcpKTyNv-42" value="&lt;font color=&quot;#666666&quot;&gt;&lt;i&gt;bar&lt;/i&gt;&lt;/font&gt;" style="text;html=1;strokeColor=none;fillColor=none;align=center;verticalAlign=middle;whiteSpace=wrap;rounded=0;" parent="1" vertex="1">
          <mxGeometry x="510" y="675" width="60" height="30" as="geometry" />
        </mxCell>
        <mxCell id="ENt79Uhcj-9WUcpKTyNv-43" value="&lt;font color=&quot;#666666&quot;&gt;&lt;i&gt;do not bar&lt;/i&gt;&lt;/font&gt;" style="text;html=1;strokeColor=none;fillColor=none;align=center;verticalAlign=middle;whiteSpace=wrap;rounded=0;" parent="1" vertex="1">
          <mxGeometry x="610" y="815" width="60" height="30" as="geometry" />
        </mxCell>
        <mxCell id="ENt79Uhcj-9WUcpKTyNv-46" value="&lt;div&gt;&lt;font color=&quot;#006600&quot;&gt;i=0&lt;br&gt;&lt;/font&gt;&lt;/div&gt;" style="text;html=1;strokeColor=none;fillColor=none;align=center;verticalAlign=middle;whiteSpace=wrap;rounded=0;fontStyle=1" parent="1" vertex="1">
          <mxGeometry x="570" y="630" width="80" height="30" as="geometry" />
        </mxCell>
        <mxCell id="ENt79Uhcj-9WUcpKTyNv-47" value="&lt;div&gt;&lt;font color=&quot;#0000ff&quot;&gt;1-p_bar&lt;/font&gt;&lt;br&gt;&lt;/div&gt;" style="text;html=1;strokeColor=none;fillColor=none;align=center;verticalAlign=middle;whiteSpace=wrap;rounded=0;fontStyle=1" parent="1" vertex="1">
          <mxGeometry x="600" y="795" width="80" height="30" as="geometry" />
        </mxCell>
        <mxCell id="ENt79Uhcj-9WUcpKTyNv-84" value="&lt;b&gt;Module month&lt;/b&gt;" style="text;html=1;strokeColor=none;fillColor=none;align=center;verticalAlign=middle;whiteSpace=wrap;rounded=0;" parent="1" vertex="1">
          <mxGeometry x="340" y="50" width="90" height="30" as="geometry" />
        </mxCell>
        <mxCell id="ENt79Uhcj-9WUcpKTyNv-85" value="&lt;b&gt;Module investor&lt;/b&gt;" style="text;html=1;strokeColor=none;fillColor=none;align=center;verticalAlign=middle;whiteSpace=wrap;rounded=0;" parent="1" vertex="1">
          <mxGeometry x="160" y="590" width="95" height="30" as="geometry" />
        </mxCell>
        <mxCell id="ENt79Uhcj-9WUcpKTyNv-86" value="&lt;font color=&quot;#666666&quot;&gt;&lt;i&gt;update&lt;br&gt;v, cap, p&lt;/i&gt;&lt;/font&gt;" style="text;html=1;strokeColor=none;fillColor=none;align=center;verticalAlign=middle;whiteSpace=wrap;rounded=0;" parent="1" vertex="1">
          <mxGeometry x="290" y="330" width="60" height="30" as="geometry" />
        </mxCell>
        <mxCell id="ENt79Uhcj-9WUcpKTyNv-87" value="&lt;b&gt;Module barred&lt;/b&gt;" style="text;html=1;strokeColor=none;fillColor=none;align=center;verticalAlign=middle;whiteSpace=wrap;rounded=0;" parent="1" vertex="1">
          <mxGeometry x="500" y="600" width="90" height="30" as="geometry" />
        </mxCell>
        <mxCell id="ENt79Uhcj-9WUcpKTyNv-88" value="&lt;font color=&quot;#666666&quot;&gt;&lt;i&gt;did not reserve previous month&lt;/i&gt;&lt;/font&gt;" style="text;html=1;strokeColor=none;fillColor=none;align=center;verticalAlign=middle;whiteSpace=wrap;rounded=0;" parent="1" vertex="1">
          <mxGeometry x="630" y="630" width="60" height="30" as="geometry" />
        </mxCell>
        <mxCell id="sey96yaQxsVApKrz18R4-5" value="&lt;div&gt;&lt;font&gt;stocks &lt;/font&gt;&lt;font&gt;==&lt;/font&gt;&lt;font&gt; 0&lt;br&gt;&lt;/font&gt;&lt;/div&gt;" style="text;html=1;strokeColor=none;fillColor=none;align=center;verticalAlign=middle;whiteSpace=wrap;rounded=0;fontStyle=1;fontColor=#33FF33;" vertex="1" parent="1">
          <mxGeometry x="280" y="370" width="80" height="30" as="geometry" />
        </mxCell>
        <mxCell id="sey96yaQxsVApKrz18R4-7" style="rounded=0;orthogonalLoop=1;jettySize=auto;html=1;fillColor=#d5e8d4;strokeColor=#82b366;" edge="1" parent="1" source="NzjxVL5mABf7hT2KAsvz-2" target="NzjxVL5mABf7hT2KAsvz-35">
          <mxGeometry relative="1" as="geometry">
            <mxPoint x="208" y="218" as="sourcePoint" />
            <mxPoint x="392" y="402" as="targetPoint" />
          </mxGeometry>
        </mxCell>
        <mxCell id="sey96yaQxsVApKrz18R4-8" style="rounded=0;orthogonalLoop=1;jettySize=auto;html=1;fillColor=#d5e8d4;strokeColor=#82b366;entryX=0.5;entryY=0;entryDx=0;entryDy=0;" edge="1" parent="1" source="NzjxVL5mABf7hT2KAsvz-3" target="NzjxVL5mABf7hT2KAsvz-35">
          <mxGeometry relative="1" as="geometry">
            <mxPoint x="218" y="228" as="sourcePoint" />
            <mxPoint x="410" y="370" as="targetPoint" />
          </mxGeometry>
        </mxCell>
        <mxCell id="sey96yaQxsVApKrz18R4-9" style="rounded=0;orthogonalLoop=1;jettySize=auto;html=1;fillColor=#d5e8d4;strokeColor=#82b366;" edge="1" parent="1" source="NzjxVL5mABf7hT2KAsvz-17" target="NzjxVL5mABf7hT2KAsvz-35">
          <mxGeometry relative="1" as="geometry">
            <mxPoint x="469" y="228" as="sourcePoint" />
            <mxPoint x="420" y="390" as="targetPoint" />
          </mxGeometry>
        </mxCell>
        <mxCell id="sey96yaQxsVApKrz18R4-10" style="rounded=0;orthogonalLoop=1;jettySize=auto;html=1;fillColor=#d5e8d4;strokeColor=#82b366;exitX=1;exitY=0;exitDx=0;exitDy=0;entryX=0;entryY=0;entryDx=0;entryDy=0;" edge="1" parent="1" source="NzjxVL5mABf7hT2KAsvz-32" target="NzjxVL5mABf7hT2KAsvz-35">
          <mxGeometry relative="1" as="geometry">
            <mxPoint x="208" y="218" as="sourcePoint" />
            <mxPoint x="370" y="410" as="targetPoint" />
          </mxGeometry>
        </mxCell>
        <mxCell id="sey96yaQxsVApKrz18R4-12" value="&lt;div&gt;&lt;font&gt;stocks &lt;/font&gt;&lt;font&gt;==&lt;/font&gt;&lt;font&gt; 0&lt;br&gt;&lt;/font&gt;&lt;/div&gt;" style="text;html=1;strokeColor=none;fillColor=none;align=center;verticalAlign=middle;whiteSpace=wrap;rounded=0;fontStyle=1;fontColor=#33FF33;" vertex="1" parent="1">
          <mxGeometry x="485" y="310" width="80" height="30" as="geometry" />
        </mxCell>
        <mxCell id="sey96yaQxsVApKrz18R4-13" value="&lt;div&gt;&lt;font&gt;stocks &lt;/font&gt;&lt;font&gt;==&lt;/font&gt;&lt;font&gt; 0&lt;br&gt;&lt;/font&gt;&lt;/div&gt;" style="text;html=1;strokeColor=none;fillColor=none;align=center;verticalAlign=middle;whiteSpace=wrap;rounded=0;fontStyle=1;fontColor=#33FF33;" vertex="1" parent="1">
          <mxGeometry x="410" y="310" width="80" height="30" as="geometry" />
        </mxCell>
        <mxCell id="sey96yaQxsVApKrz18R4-14" value="&lt;div&gt;&lt;font&gt;stocks &lt;/font&gt;&lt;font&gt;==&lt;/font&gt;&lt;font&gt; 0&lt;br&gt;&lt;/font&gt;&lt;/div&gt;" style="text;html=1;strokeColor=none;fillColor=none;align=center;verticalAlign=middle;whiteSpace=wrap;rounded=0;fontStyle=1;fontColor=#33FF33;" vertex="1" parent="1">
          <mxGeometry x="340" y="310" width="80" height="30" as="geometry" />
        </mxCell>
        <mxCell id="sey96yaQxsVApKrz18R4-15" value="&lt;div&gt;&lt;font&gt;stocks == 0&lt;br&gt;&lt;/font&gt;&lt;/div&gt;" style="text;html=1;strokeColor=none;fillColor=none;align=center;verticalAlign=middle;whiteSpace=wrap;rounded=0;fontStyle=1;fontColor=#33FF33;" vertex="1" parent="1">
          <mxGeometry x="210" y="260" width="80" height="30" as="geometry" />
        </mxCell>
        <mxCell id="sey96yaQxsVApKrz18R4-16" value="" style="edgeStyle=orthogonalEdgeStyle;rounded=0;orthogonalLoop=1;jettySize=auto;html=1;" edge="1" parent="1" source="NzjxVL5mABf7hT2KAsvz-2" target="NzjxVL5mABf7hT2KAsvz-37">
          <mxGeometry relative="1" as="geometry">
            <Array as="points" />
            <mxPoint x="320" y="220" as="sourcePoint" />
            <mxPoint x="410" y="380" as="targetPoint" />
          </mxGeometry>
        </mxCell>
        <mxCell id="NzjxVL5mABf7hT2KAsvz-37" value="&lt;font color=&quot;#006600&quot;&gt;t&amp;gt;=tmax&lt;/font&gt;" style="text;html=1;strokeColor=none;fillColor=none;align=center;verticalAlign=middle;whiteSpace=wrap;rounded=0;fontStyle=1" parent="1" vertex="1">
          <mxGeometry x="290" y="260" width="60" height="30" as="geometry" />
        </mxCell>
        <mxCell id="sey96yaQxsVApKrz18R4-17" value="or &lt;br&gt;&lt;div&gt;&lt;font&gt;stocks &lt;/font&gt;&lt;font&gt;==&lt;/font&gt;&lt;font&gt; 0&lt;br&gt;&lt;/font&gt;&lt;/div&gt;" style="text;html=1;strokeColor=none;fillColor=none;align=center;verticalAlign=middle;whiteSpace=wrap;rounded=0;fontStyle=1;fontColor=#33FF33;" vertex="1" parent="1">
          <mxGeometry x="530" y="430" width="80" height="30" as="geometry" />
        </mxCell>
        <mxCell id="sey96yaQxsVApKrz18R4-22" value="&lt;div&gt;&lt;font&gt;stocks &lt;/font&gt;&lt;font&gt;&amp;gt;&lt;/font&gt;&lt;font&gt; 0&lt;br&gt;&lt;/font&gt;&lt;/div&gt;" style="text;html=1;strokeColor=none;fillColor=none;align=center;verticalAlign=middle;whiteSpace=wrap;rounded=0;fontStyle=1;fontColor=#33FF33;" vertex="1" parent="1">
          <mxGeometry x="160" y="725" width="80" height="30" as="geometry" />
        </mxCell>
        <mxCell id="sey96yaQxsVApKrz18R4-23" value="&lt;div&gt;stocks = stocks -1&lt;/div&gt;" style="text;html=1;strokeColor=none;fillColor=none;align=center;verticalAlign=middle;whiteSpace=wrap;rounded=0;" vertex="1" parent="1">
          <mxGeometry x="157.5" y="815" width="100" height="30" as="geometry" />
        </mxCell>
        <mxCell id="sey96yaQxsVApKrz18R4-24" value="&lt;div&gt;&lt;font color=&quot;#006600&quot;&gt;b=1&lt;/font&gt;&lt;font color=&quot;#33ff33&quot;&gt; and &lt;/font&gt;&lt;font color=&quot;#33ff33&quot;&gt;stocks &lt;font&gt;&amp;gt;&lt;/font&gt;&lt;font&gt; 0&lt;br&gt;&lt;/font&gt;&lt;/font&gt;&lt;/div&gt;" style="text;html=1;strokeColor=none;fillColor=none;align=center;verticalAlign=middle;whiteSpace=wrap;rounded=0;fontStyle=1" vertex="1" parent="1">
          <mxGeometry x="110" y="630" width="200" height="30" as="geometry" />
        </mxCell>
        <mxCell id="sey96yaQxsVApKrz18R4-25" value="&lt;div&gt;&lt;font&gt;stocks &lt;/font&gt;&lt;font&gt;&amp;gt;&lt;/font&gt;&lt;font&gt; 0&lt;br&gt;&lt;/font&gt;&lt;/div&gt;" style="text;html=1;strokeColor=none;fillColor=none;align=center;verticalAlign=middle;whiteSpace=wrap;rounded=0;fontStyle=1;fontColor=#33FF33;" vertex="1" parent="1">
          <mxGeometry x="60" y="815" width="80" height="30" as="geometry" />
        </mxCell>
      </root>
    </mxGraphModel>
  </diagram>
</mxfile>
